<svg width="74" height="92" viewBox="0 0 74 92" fill="none" xmlns="http://www.w3.org/2000/svg">
<g clip-path="url(#clip0_2_162)">
<rect width="74" height="92" fill="white"/>
<path d="M2.16429 64.8013C2.81357 60.3388 5.19429 59 9.95573 59C16.0157 59 21.2079 64.4451 20.9936 70.6027C20.3443 76.8503 13.8514 75.7346 10.8214 75.9578C4.76143 75.9578 0.649287 76.404 0 74.3959C-1.03201e-07 69.7102 4.54704 71.7183 3.24643 70.6027C2.31617 69.8047 1.95871 66.2143 2.16429 64.8013Z" fill="#E79A4E"/>
<g filter="url(#filter0_d_2_162)">
<path d="M66.8357 64.8013C66.1864 60.3388 63.8057 59 59.0443 59C52.9843 59 47.7921 64.4451 48.0064 70.6027C48.6557 76.8503 55.1486 75.7346 58.1786 75.9578C64.2386 75.9578 68.3507 76.404 69 74.3959C69 69.7102 64.453 71.7183 65.7536 70.6027C66.6838 69.8047 67.0413 66.2143 66.8357 64.8013Z" fill="#E79A4E"/>
<path d="M66.8357 64.8013C66.1864 60.3388 63.8057 59 59.0443 59C52.9843 59 47.7921 64.4451 48.0064 70.6027C48.6557 76.8503 55.1486 75.7346 58.1786 75.9578C64.2386 75.9578 68.3507 76.404 69 74.3959C69 69.7102 64.453 71.7183 65.7536 70.6027C66.6838 69.8047 67.0413 66.2143 66.8357 64.8013Z" stroke="#D07921"/>
</g>
<path d="M59 58.7171C59 74.0227 49.7401 84 34 84C18.2599 84 9 74.0227 9 58.7171C9 43.4115 18.2599 20 34 20C49.7401 20 59 43.4115 59 58.7171Z" fill="#D07921"/>
<path d="M11 85C11 80.0294 15.0294 76 20 76C24.9706 76 29 80.0294 29 85C29 89.9706 24.9706 91.5 20 91.5C15.0294 91.5 11 89.9706 11 85Z" fill="#E79A4E"/>
<path d="M39 85C39 80.0294 43.0294 76 48 76C52.9706 76 57 80.0294 57 85C57 89.9706 52.9706 91.5 48 91.5C43.0294 91.5 39 89.9706 39 85Z" fill="#E79A4E"/>
<path d="M57 18C57 26.2843 46.7025 33 34 33C21.2975 33 11 26.2843 11 18C11 9.71573 21.2975 3 34 3C46.7025 3 57 9.71573 57 18Z" fill="#F59C1F"/>
<ellipse cx="26" cy="12.6072" rx="3" ry="3.5" fill="#040404"/>
<ellipse cx="42" cy="12.6072" rx="3" ry="3.5" fill="#040404"/>
<path d="M34.5 25.1072C34.5 25.1072 31.1466 22.8378 31.0014 19.8572C30.8877 17.5238 38.1123 17.5238 37.9987 19.8572C37.8535 22.8378 34.5 25.1072 34.5 25.1072Z" fill="black"/>
<path d="M25 25C25 25 25.9799 27.7959 28.0513 27.9838C31.0535 28.2562 33.7179 25 33.7179 25C33.7179 25 35.7499 28.2276 38.5128 27.9838C40.4479 27.8131 42 25 42 25" stroke="black"/>
<path d="M14.2586 28.5422L12.4145 29.3556L11.2557 29.486L8.33813 28.8199L7.25012 28.1765L4.86913 27.6329L3.16261 26.4532L2.4536 25.3861L2.62147 24.6508L2.8072 23.8374L2.97507 23.1021L3.34295 21.4908L4.88415 18.913L6.88075 15.7313C7.19652 15.1725 7.38285 13.2849 8.23007 12.9122C9.0773 12.5394 9.53297 12.1508 9.3264 11.6647L10.7011 9.97057L12.9992 8.40493L15.5812 6.98642L17.6935 6.23426L19.3696 6.15609L21.2134 6.11621L17.9998 7.98304L16.8041 10.1295L16.4255 11.7878L16.1005 13.2113L16.4462 14.788L15.0969 17.6072L14.8353 21.8433L14.6121 26.9935L14.2586 28.5422Z" fill="#F59C1F" stroke="#D07921"/>
<path d="M52.9549 28.5422L54.7989 29.3556L55.9578 29.486L58.8753 28.8199L59.9633 28.1765L62.3443 27.6329L64.0508 26.4532L64.7598 25.3861L64.592 24.6508L64.4062 23.8374L64.2384 23.1021L63.8705 21.4908L62.3293 18.913L60.3327 15.7313C60.0169 15.1725 59.8306 13.2849 58.9834 12.9122C58.1361 12.5394 57.6805 12.1508 57.887 11.6647L56.5123 9.97057L54.2143 8.40493L51.6323 6.98642L49.52 6.23426L47.8438 6.15609L46 6.11621L49.2136 7.98304L50.4093 10.1295L50.7879 11.7878L51.113 13.2113L50.7673 14.788L52.1166 17.6072L52.3781 21.8433L52.6013 26.9935L52.9549 28.5422Z" fill="#F59C1F" stroke="#D07921"/>
</g>
<defs>
<filter id="filter0_d_2_162" x="43.5" y="58.5" width="30" height="25.9999" filterUnits="userSpaceOnUse" color-interpolation-filters="sRGB">
<feFlood flood-opacity="0" result="BackgroundImageFix"/>
<feColorMatrix in="SourceAlpha" type="matrix" values="0 0 0 0 0 0 0 0 0 0 0 0 0 0 0 0 0 0 127 0" result="hardAlpha"/>
<feOffset dy="4"/>
<feGaussianBlur stdDeviation="2"/>
<feComposite in2="hardAlpha" operator="out"/>
<feColorMatrix type="matrix" values="0 0 0 0 0 0 0 0 0 0 0 0 0 0 0 0 0 0 0.25 0"/>
<feBlend mode="normal" in2="BackgroundImageFix" result="effect1_dropShadow_2_162"/>
<feBlend mode="normal" in="SourceGraphic" in2="effect1_dropShadow_2_162" result="shape"/>
</filter>
<clipPath id="clip0_2_162">
<rect width="74" height="92" fill="white"/>
</clipPath>
</defs>
</svg>
